<svg xmlns="http://www.w3.org/2000/svg" xmlns:xlink="http://www.w3.org/1999/xlink" width="250" zoomAndPan="magnify" viewBox="0 0 187.5 187.499992" height="250" preserveAspectRatio="xMidYMid meet" version="1.0"><defs><clipPath id="dfd160791c"><path d="M 0 0 L 187 0 L 187 187 L 0 187 Z M 0 0 " clip-rule="nonzero"/></clipPath><clipPath id="48f652fdfd"><path d="M 15.183594 15.183594 L 172.683594 15.183594 L 172.683594 172.683594 L 15.183594 172.683594 Z M 15.183594 15.183594 " clip-rule="nonzero"/></clipPath></defs><g clip-path="url(#dfd160791c)"><path fill="#ffffff" d="M 0 0 L 187.5 0 L 187.5 195 L 0 195 Z M 0 0 " fill-opacity="1" fill-rule="nonzero"/><path fill="#ffffff" d="M 0 0 L 187.5 0 L 187.5 187.5 L 0 187.5 Z M 0 0 " fill-opacity="1" fill-rule="nonzero"/></g><path fill="#000000" d="M 121.371094 133.871094 L 60.847656 133.871094 L 60.96875 135.59375 C 61.027344 136.460938 61.757812 137.136719 62.621094 137.136719 L 119.597656 137.136719 C 120.460938 137.136719 121.191406 136.460938 121.246094 135.59375 Z M 121.371094 133.871094 " fill-opacity="1" fill-rule="evenodd"/><path fill="#000000" d="M 123.492188 103.699219 L 58.722656 103.699219 L 60.703125 131.804688 L 121.511719 131.804688 Z M 123.492188 103.699219 " fill-opacity="1" fill-rule="evenodd"/><path fill="#000000" d="M 100.015625 97.042969 L 76.457031 97.042969 C 76.414062 97.046875 76.371094 97.046875 76.332031 97.042969 L 66.097656 97.042969 C 66.070312 97.042969 66.054688 97.046875 66.03125 97.046875 C 66.007812 97.046875 65.988281 97.046875 65.964844 97.042969 L 55.992188 97.042969 C 55.769531 97.042969 55.597656 97.21875 55.597656 97.433594 L 55.597656 101.238281 C 55.597656 101.457031 55.769531 101.628906 55.992188 101.628906 L 57.601562 101.628906 C 57.613281 101.628906 57.625 101.628906 57.636719 101.628906 L 126.234375 101.628906 C 126.449219 101.628906 126.625 101.457031 126.625 101.238281 L 126.625 97.433594 C 126.625 97.21875 126.449219 97.042969 126.234375 97.042969 L 120.40625 97.042969 C 120.363281 97.046875 120.320312 97.046875 120.28125 97.042969 L 103.40625 97.042969 C 103.382812 97.042969 103.367188 97.046875 103.34375 97.046875 C 103.316406 97.046875 103.300781 97.046875 103.277344 97.042969 L 100.132812 97.042969 L 100.078125 97.046875 Z M 100.015625 97.042969 " fill-opacity="1" fill-rule="evenodd"/><path fill="#000000" d="M 116.527344 66.894531 L 120.066406 68.359375 C 120.597656 68.582031 120.84375 69.183594 120.628906 69.710938 C 120.460938 70.109375 120.082031 70.347656 119.671875 70.347656 C 119.542969 70.347656 119.410156 70.324219 119.277344 70.269531 L 115.738281 68.800781 L 111.71875 78.496094 L 115.261719 79.964844 C 115.789062 80.183594 116.039062 80.785156 115.824219 81.3125 C 115.65625 81.710938 115.273438 81.953125 114.867188 81.953125 C 114.738281 81.953125 114.601562 81.925781 114.472656 81.871094 L 110.929688 80.402344 L 104.890625 94.976562 L 119.648438 94.976562 L 121.160156 91.328125 L 117.621094 89.859375 C 117.089844 89.640625 116.84375 89.039062 117.058594 88.511719 C 117.277344 87.984375 117.878906 87.734375 118.40625 87.949219 L 121.945312 89.417969 L 125.960938 79.722656 L 122.417969 78.257812 C 121.890625 78.039062 121.640625 77.4375 121.855469 76.910156 C 122.078125 76.378906 122.679688 76.132812 123.207031 76.347656 L 126.75 77.816406 L 130.761719 68.121094 L 127.222656 66.652344 C 126.691406 66.433594 126.445312 65.832031 126.660156 65.304688 C 126.878906 64.773438 127.480469 64.527344 128.007812 64.742188 L 131.546875 66.210938 L 132.816406 63.152344 C 133.164062 62.316406 133.335938 61.445312 133.335938 60.546875 C 133.335938 57.777344 131.6875 55.304688 129.128906 54.25 C 127.445312 53.550781 125.59375 53.550781 123.910156 54.25 C 122.230469 54.949219 120.917969 56.257812 120.222656 57.9375 Z M 116.527344 66.894531 " fill-opacity="1" fill-rule="evenodd"/><path fill="#000000" d="M 109.328125 63.644531 L 101.109375 71.632812 L 101.109375 94.976562 L 102.65625 94.976562 L 109.402344 78.6875 L 109.414062 78.660156 L 109.421875 78.636719 L 112.988281 70.027344 Z M 109.328125 63.644531 " fill-opacity="1" fill-rule="evenodd"/><path fill="#000000" d="M 88.566406 63.007812 L 81.226562 70.167969 L 99.65625 70.167969 L 107.015625 63.007812 Z M 88.566406 63.007812 " fill-opacity="1" fill-rule="evenodd"/><path fill="#000000" d="M 89.183594 55.316406 L 89.183594 60.945312 L 108.558594 60.945312 L 108.738281 55.332031 C 108.746094 55.121094 108.640625 54.976562 108.578125 54.917969 C 108.515625 54.851562 108.375 54.742188 108.164062 54.742188 L 89.757812 54.742188 C 89.4375 54.742188 89.183594 55 89.183594 55.316406 Z M 89.183594 55.316406 " fill-opacity="1" fill-rule="evenodd"/><path fill="#000000" d="M 79.722656 72.234375 L 79.722656 86.457031 C 81.441406 85.398438 83.457031 84.800781 85.582031 84.800781 C 91.410156 84.800781 96.214844 89.277344 96.738281 94.976562 L 99.046875 94.976562 L 99.046875 72.234375 Z M 79.722656 72.234375 " fill-opacity="1" fill-rule="evenodd"/><path fill="#000000" d="M 85.578125 86.867188 C 83.253906 86.867188 81.089844 87.746094 79.449219 89.226562 C 79.410156 89.273438 79.367188 89.3125 79.316406 89.347656 C 78.167969 90.421875 77.292969 91.804688 76.824219 93.378906 C 77.011719 93.945312 77.160156 94.480469 77.265625 94.972656 L 94.65625 94.972656 C 94.144531 90.421875 90.269531 86.867188 85.578125 86.867188 Z M 85.578125 86.867188 " fill-opacity="1" fill-rule="evenodd"/><path fill="#000000" d="M 68.671875 82.738281 L 60.21875 91.1875 C 62.144531 92.535156 64.292969 93.882812 66.292969 94.976562 L 75.144531 94.976562 C 75.046875 94.597656 74.921875 94.1875 74.765625 93.753906 C 73.527344 90.25 70.851562 85.84375 68.671875 82.738281 Z M 68.671875 82.738281 " fill-opacity="1" fill-rule="evenodd"/><path fill="#000000" d="M 58.75 77.585938 C 57.929688 77.910156 57.179688 78.402344 56.53125 79.046875 C 55.890625 79.6875 55.398438 80.4375 55.070312 81.273438 C 55.0625 81.296875 55.050781 81.320312 55.042969 81.347656 C 54.132812 83.746094 54.71875 86.460938 56.53125 88.269531 C 56.957031 88.699219 57.664062 89.296875 58.53125 89.949219 L 67.4375 81.039062 C 66.769531 80.171875 66.1875 79.472656 65.757812 79.039062 C 64.5625 77.847656 62.984375 77.167969 61.300781 77.132812 C 60.449219 77.113281 59.617188 77.253906 58.84375 77.542969 C 58.8125 77.558594 58.785156 77.570312 58.75 77.585938 Z M 58.75 77.585938 " fill-opacity="1" fill-rule="evenodd"/><path fill="#000000" d="M 61.664062 64.074219 L 66.636719 69.046875 C 67.039062 69.449219 67.035156 70.105469 66.636719 70.507812 C 66.230469 70.910156 65.574219 70.910156 65.171875 70.507812 C 64.71875 70.054688 64.113281 69.804688 63.464844 69.804688 C 62.824219 69.804688 62.21875 70.050781 61.765625 70.507812 C 61.082031 71.191406 60.871094 72.210938 61.230469 73.105469 L 62.039062 75.113281 C 63.988281 75.316406 65.808594 76.171875 67.214844 77.578125 C 67.820312 78.1875 68.65625 79.207031 69.585938 80.464844 C 69.621094 80.503906 69.652344 80.550781 69.683594 80.597656 C 71.59375 83.210938 74.082031 87.109375 75.722656 90.664062 C 76.242188 89.707031 76.894531 88.835938 77.648438 88.085938 L 77.648438 71.28125 C 77.644531 71.253906 77.644531 71.222656 77.644531 71.195312 C 77.644531 70.871094 77.792969 70.585938 78.027344 70.394531 L 86.671875 61.964844 L 84.441406 59.730469 C 83.515625 58.808594 82.019531 58.808594 81.101562 59.730469 L 78.226562 62.609375 C 77.933594 62.902344 77.488281 62.992188 77.101562 62.835938 C 76.71875 62.675781 76.460938 62.296875 76.460938 61.878906 L 76.460938 53.582031 C 76.460938 52.898438 76.199219 52.261719 75.714844 51.777344 C 75.230469 51.292969 74.589844 51.027344 73.90625 51.027344 C 72.5 51.027344 71.355469 52.175781 71.355469 53.585938 L 71.355469 61.644531 C 71.355469 62.0625 71.101562 62.4375 70.714844 62.597656 C 70.332031 62.757812 69.886719 62.667969 69.589844 62.375 L 66.476562 59.265625 C 65.835938 58.621094 64.980469 58.269531 64.070312 58.269531 C 63.160156 58.269531 62.304688 58.621094 61.667969 59.265625 C 60.335938 60.589844 60.335938 62.75 61.664062 64.074219 Z M 61.664062 64.074219 " fill-opacity="1" fill-rule="evenodd"/><g clip-path="url(#48f652fdfd)"><path fill="#000000" d="M 93.933594 172.683594 C 72.894531 172.683594 53.121094 164.492188 38.246094 149.617188 C 23.375 134.742188 15.183594 114.96875 15.183594 93.933594 C 15.183594 72.894531 23.371094 53.121094 38.246094 38.246094 C 53.125 23.375 72.894531 15.183594 93.933594 15.183594 C 114.96875 15.183594 134.746094 23.371094 149.617188 38.246094 C 164.488281 53.125 172.683594 72.894531 172.683594 93.933594 C 172.683594 114.96875 164.492188 134.746094 149.617188 149.617188 C 134.742188 164.488281 114.96875 172.683594 93.933594 172.683594 Z M 93.933594 22.339844 C 54.457031 22.339844 22.339844 54.457031 22.339844 93.933594 C 22.339844 133.40625 54.453125 165.523438 93.933594 165.523438 C 133.40625 165.523438 165.523438 133.410156 165.523438 93.933594 C 165.523438 54.457031 133.40625 22.339844 93.933594 22.339844 Z M 93.933594 22.339844 " fill-opacity="1" fill-rule="nonzero"/></g></svg>